{"title":"[+18] Drive Angry (2011) BluRay 720p x264 Dual Audio [English 5.","uid":12570093,"size":1065822695,"categoryP":"video","categoryS":"movies","magnet":"?xt=urn:btih:7143b8e4b9dfcca6b305ad33b66424844ec13b29&amp;dn=%5B%2B18%5D+Drive+Angry+%282011%29+BluRay+720p+x264+Dual+Audio+%5BEnglish+5.&amp;tr=udp%3A%2F%2Ftracker.leechers-paradise.org%3A6969&amp;tr=udp%3A%2F%2Fzer0day.ch%3A1337&amp;tr=udp%3A%2F%2Fopen.demonii.com%3A1337&amp;tr=udp%3A%2F%2Ftracker.coppersurfer.tk%3A6969&amp;tr=udp%3A%2F%2Fexodus.desync.com%3A6969","seeders":10,"leechers":7,"uploader":"makintos13","files":2,"time":1444840369,"description":"screens:\r\n \nhttp://imgmak.com/Bq\r\n \nhttp://imgmak.com/Bt\r\n \nhttp://imgmak.com/B2\r\n \nhttp://imgmak.com/BF\r\n \nhttp://imgmak.com/Bi\r\n\r\n;:::::::::::::::::::::::\r\n\r\n\r\nVideo\r\nID : 1\r\nFormat : AVC\r\nFormat/Info : Advanced Video Codec\r\nFormat profile :   \r\nFormat settings, CABAC : Yes\r\nFormat settings, ReFrames : 5 frames\r\nCodec ID : V_MPEG4/ISO/AVC\r\nDuration : 1h 44mn\r\nBit rate : 899 Kbps\r\nWidth : 1 280 pixels\r\nHeight : 720 pixels\r\nDisplay aspect ratio : 16:9\r\nFrame rate mode : Constant\r\nFrame rate : 23.976 fps\r\nColor space : YUV\r\nChroma subsampling : 4:2:0\r\nBit depth : 8 bits\r\nScan type : Progressive\r\nBits/(Pixel*Frame) : 0.041\r\nStream size : 653 MiB (65%)\r\nTitle :   \r\n\r\nAudio #1\r\nID : 2\r\nFormat : AC-3\r\nFormat/Info : Audio Coding 3\r\nMode extension : CM (complete main)\r\nFormat settings, Endianness : Big\r\nCodec ID : A_AC3\r\nDuration : 1h 44mn\r\nBit rate mode : Constant\r\nBit rate : 224 Kbps\r\nChannel(s) : 6 channels\r\nChannel positions : Front: L C R, Side: L R, LFE\r\nSampling rate : 48.0 KHz\r\nBit depth : 16 bits\r\nCompression mode : Lossy\r\nStream size : 168 MiB (17%)\r\nTitle :   \r\nLanguage : English\r\nDefault : No\r\nForced : No\r\n\r\nAudio #2\r\nID : 3\r\nFormat : AC-3\r\nFormat/Info : Audio Coding 3\r\nMode extension : CM (complete main)\r\nFormat settings, Endianness : Big\r\nCodec ID : A_AC3\r\nDuration : 1h 44mn\r\nBit rate mode : Constant\r\nBit rate : 224 Kbps\r\nChannel(s) : 6 channels\r\nChannel positions : Front: L C R, Side: L R, LFE\r\nSampling rate : 48.0 KHz\r\nBit depth : 16 bits\r\nCompression mode : Lossy\r\nStream size : 168 MiB (17%)\r\nTitle :   \r\nLanguage : Hindi\r\nDefault : Yes\r\nForced : No","torrent":{"xt":"urn:btih:7143b8e4b9dfcca6b305ad33b66424844ec13b29","amp;dn":"%5B%2B18%5D+Drive+Angry+%282011%29+BluRay+720p+x264+Dual+Audio+%5BEnglish+5.","amp;tr":["udp%3A%2F%2Ftracker.leechers-paradise.org%3A6969","udp%3A%2F%2Fzer0day.ch%3A1337","udp%3A%2F%2Fopen.demonii.com%3A1337","udp%3A%2F%2Ftracker.coppersurfer.tk%3A6969","udp%3A%2F%2Fexodus.desync.com%3A6969"],"infoHash":"7143b8e4b9dfcca6b305ad33b66424844ec13b29","infoHashBuffer":{"type":"Buffer","data":[113,67,184,228,185,223,204,166,179,5,173,51,182,100,36,132,78,193,59,41]},"announce":[],"urlList":[]}}